{
  "accessors": [
    {
      "bufferView": 2,
      "componentType": 5126,
      "count": 9748,
      "max": [
        4.800835609436035,
        3.8296260833740234,
        4.687544345855713
      ],
      "min": [
        -4.800835609436035,
        -0.31857138872146606,
        -4.687544345855713
      ],
      "type": "VEC3"
    },
    {
      "bufferView": 2,
      "byteOffset": 116976,
      "componentType": 5126,
      "count": 9748,
      "max": [
        1.0,
        1.0,
        1.0
      ],
      "min": [
        -1.0,
        -1.0,
        -1.0
      ],
      "type": "VEC3"
    },
    {
      "bufferView": 1,
      "componentType": 5126,
      "count": 9748,
      "max": [
        0.875,
        1.0
      ],
      "min": [
        0.125,
        0.0
      ],
      "type": "VEC2"
    },
    {
      "bufferView": 0,
      "componentType": 5125,
      "count": 35814,
      "type": "SCALAR"
    },
    {
      "bufferView": 2,
      "byteOffset": 233952,
      "componentType": 5126,
      "count": 1608,
      "max": [
        4.720783710479736,
        3.8916561603546143,
        4.641067981719971
      ],
      "min": [
        -4.837409019470215,
        2.006427049636841,
        -4.553232192993164
      ],
      "type": "VEC3"
    },
    {
      "bufferView": 2,
      "byteOffset": 253248,
      "componentType": 5126,
      "count": 1608,
      "max": [
        0.8660275340080261,
        1.0,
        0.8660255074501038
      ],
      "min": [
        -0.8660255670547485,
        -1.0,
        -0.8660261034965515
      ],
      "type": "VEC3"
    },
    {
      "bufferView": 1,
      "byteOffset": 77984,
      "componentType": 5126,
      "count": 1608,
      "max": [
        0.875,
        1.0
      ],
      "min": [
        0.125,
        -7.450580596923828e-09
      ],
      "type": "VEC2"
    },
    {
      "bufferView": 0,
      "byteOffset": 143256,
      "componentType": 5125,
      "count": 4320,
      "type": "SCALAR"
    },
    {
      "bufferView": 2,
      "byteOffset": 272544,
      "componentType": 5126,
      "count": 328,
      "max": [
        4.94830846786499,
        4.32277774810791,
        4.89091157913208
      ],
      "min": [
        -5.0115966796875,
        -0.3620493412017822,
        -4.826663494110107
      ],
      "type": "VEC3"
    },
    {
      "bufferView": 2,
      "byteOffset": 276480,
      "componentType": 5126,
      "count": 328,
      "max": [
        1.0,
        1.0,
        1.0
      ],
      "min": [
        -1.0,
        -1.0,
        -1.0
      ],
      "type": "VEC3"
    },
    {
      "bufferView": 1,
      "byteOffset": 90848,
      "componentType": 5126,
      "count": 328,
      "max": [
        0.65625,
        1.0
      ],
      "min": [
        0.3437499701976776,
        -7.450580596923828e-08
      ],
      "type": "VEC2"
    },
    {
      "bufferView": 0,
      "byteOffset": 160536,
      "componentType": 5125,
      "count": 912,
      "type": "SCALAR"
    },
    {
      "bufferView": 2,
      "byteOffset": 280416,
      "componentType": 5126,
      "count": 51288,
      "max": [
        4.5744404792785645,
        3.785491943359375,
        4.522522926330566
      ],
      "min": [
        -4.69331693649292,
        2.133175849914551,
        -4.427399635314941
      ],
      "type": "VEC3"
    },
    {
      "bufferView": 2,
      "byteOffset": 895872,
      "componentType": 5126,
      "count": 51288,
      "max": [
        1.0,
        1.0,
        1.0
      ],
      "min": [
        -0.9761518836021423,
        -1.0,
        -0.9761183261871338
      ],
      "type": "VEC3"
    },
    {
      "bufferView": 1,
      "byteOffset": 93472,
      "componentType": 5126,
      "count": 51288,
      "max": [
        0.65625,
        0.9960824847221375
      ],
      "min": [
        0.34375,
        0.6914175748825073
      ],
      "type": "VEC2"
    },
    {
      "bufferView": 0,
      "byteOffset": 164184,
      "componentType": 5125,
      "count": 303264,
      "type": "SCALAR"
    },
    {
      "bufferView": 2,
      "byteOffset": 1511328,
      "componentType": 5126,
      "count": 16,
      "max": [
        4.800835609436035,
        1.182998776435852,
        4.687544345855713
      ],
      "min": [
        -4.800835609436035,
        -0.31857138872146606,
        -4.687544345855713
      ],
      "type": "VEC3"
    },
    {
      "bufferView": 2,
      "byteOffset": 1511520,
      "componentType": 5126,
      "count": 16,
      "max": [
        1.0,
        0.014574865810573101,
        1.0
      ],
      "min": [
        -1.0,
        0.0,
        -1.0
      ],
      "type": "VEC3"
    },
    {
      "bufferView": 1,
      "byteOffset": 503776,
      "componentType": 5126,
      "count": 16,
      "max": [
        0.875,
        0.75
      ],
      "min": [
        0.125,
        0.0
      ],
      "type": "VEC2"
    },
    {
      "bufferView": 0,
      "byteOffset": 1377240,
      "componentType": 5125,
      "count": 24,
      "type": "SCALAR"
    },
    {
      "bufferView": 2,
      "byteOffset": 1511712,
      "componentType": 5126,
      "count": 4,
      "max": [
        4.479401111602783,
        1.3151960372924805,
        4.447957992553711
      ],
      "min": [
        -4.555459022521973,
        1.3151960372924805,
        -4.447957992553711
      ],
      "type": "VEC3"
    },
    {
      "bufferView": 2,
      "byteOffset": 1511760,
      "componentType": 5126,
      "count": 4,
      "max": [
        0.0,
        1.0,
        1.1865554760959185e-08
      ],
      "min": [
        0.0,
        1.0,
        1.1766500662702128e-08
      ],
      "type": "VEC3"
    },
    {
      "bufferView": 1,
      "byteOffset": 503904,
      "componentType": 5126,
      "count": 4,
      "max": [
        0.6174725294113159,
        0.4944671392440796
      ],
      "min": [
        0.3805328607559204,
        0.2555328607559204
      ],
      "type": "VEC2"
    },
    {
      "bufferView": 0,
      "byteOffset": 1377336,
      "componentType": 5125,
      "count": 6,
      "type": "SCALAR"
    },
    {
      "bufferView": 2,
      "byteOffset": 1511808,
      "componentType": 5126,
      "count": 1374,
      "max": [
        11.7080717086792,
        2.2311792373657227,
        11.591379165649414
      ],
      "min": [
        -12.257668495178223,
        -0.06545615196228027,
        -11.817706108093262
      ],
      "type": "VEC3"
    },
    {
      "bufferView": 2,
      "byteOffset": 1528296,
      "componentType": 5126,
      "count": 1374,
      "max": [
        1.0,
        1.0,
        1.0
      ],
      "min": [
        -1.0,
        -1.0,
        -1.0
      ],
      "type": "VEC3"
    },
    {
      "bufferView": 1,
      "byteOffset": 503936,
      "componentType": 5126,
      "count": 1374,
      "max": [
        0.8593782186508179,
        0.9719234704971313
      ],
      "min": [
        0.14062201976776123,
        -3.983645413541126e-09
      ],
      "type": "VEC2"
    },
    {
      "bufferView": 0,
      "byteOffset": 1377360,
      "componentType": 5125,
      "count": 1992,
      "type": "SCALAR"
    }
  ],
  "asset": {
    "extras": {
      "author": "Nagesh.R (https://sketchfab.com/Nagesh.R)",
      "license": "CC-BY-4.0 (http://creativecommons.org/licenses/by/4.0/)",
      "source": "https://sketchfab.com/3d-models/wwe-ring-fcafde978ea0448cba9d1054d8c2503a",
      "title": "Wwe Ring"
    },
    "generator": "Sketchfab-13.97.0",
    "version": "2.0"
  },
  "bufferViews": [
    {
      "buffer": 0,
      "byteLength": 1385328,
      "name": "floatBufferViews",
      "target": 34963
    },
    {
      "buffer": 0,
      "byteLength": 514928,
      "byteOffset": 1385328,
      "byteStride": 8,
      "name": "floatBufferViews",
      "target": 34962
    },
    {
      "buffer": 0,
      "byteLength": 1544784,
      "byteOffset": 1900256,
      "byteStride": 12,
      "name": "floatBufferViews",
      "target": 34962
    }
  ],
  "buffers": [
    {
      "byteLength": 3445040,
      "uri": "scene.bin"
    }
  ],
  "materials": [
    {
      "doubleSided": true,
      "name": "lambert1",
      "pbrMetallicRoughness": {
        "baseColorFactor": [
          0.5,
          0.5,
          0.5,
          1.0
        ],
        "metallicFactor": 0.0,
        "roughnessFactor": 0.6
      }
    },
    {
      "doubleSided": true,
      "name": "aiStandardSurface4",
      "pbrMetallicRoughness": {
        "metallicFactor": 0.0,
        "roughnessFactor": 0.6
      }
    },
    {
      "doubleSided": true,
      "name": "aiStandardSurface8",
      "pbrMetallicRoughness": {
        "metallicFactor": 0.0,
        "roughnessFactor": 0.6
      }
    },
    {
      "doubleSided": true,
      "name": "aiStandardSurface3",
      "pbrMetallicRoughness": {
        "metallicFactor": 0.0,
        "roughnessFactor": 0.6
      }
    },
    {
      "doubleSided": true,
      "name": "aiStandardSurface11",
      "pbrMetallicRoughness": {
        "metallicFactor": 0.0,
        "roughnessFactor": 0.6
      }
    },
    {
      "doubleSided": true,
      "name": "aiStandardSurface12",
      "pbrMetallicRoughness": {
        "metallicFactor": 0.0,
        "roughnessFactor": 0.6
      }
    },
    {
      "doubleSided": true,
      "name": "aiStandardSurface10",
      "pbrMetallicRoughness": {
        "metallicFactor": 0.0,
        "roughnessFactor": 0.6
      }
    }
  ],
  "meshes": [
    {
      "name": "polySurface44_lambert1_0",
      "primitives": [
        {
          "attributes": {
            "NORMAL": 1,
            "POSITION": 0,
            "TEXCOORD_0": 2
          },
          "indices": 3,
          "material": 0,
          "mode": 4
        }
      ]
    },
    {
      "name": "polySurface44_aiStandardSurface4_0",
      "primitives": [
        {
          "attributes": {
            "NORMAL": 5,
            "POSITION": 4,
            "TEXCOORD_0": 6
          },
          "indices": 7,
          "material": 1,
          "mode": 4
        }
      ]
    },
    {
      "name": "polySurface44_aiStandardSurface8_0",
      "primitives": [
        {
          "attributes": {
            "NORMAL": 9,
            "POSITION": 8,
            "TEXCOORD_0": 10
          },
          "indices": 11,
          "material": 2,
          "mode": 4
        }
      ]
    },
    {
      "name": "polySurface44_aiStandardSurface3_0",
      "primitives": [
        {
          "attributes": {
            "NORMAL": 13,
            "POSITION": 12,
            "TEXCOORD_0": 14
          },
          "indices": 15,
          "material": 3,
          "mode": 4
        }
      ]
    },
    {
      "name": "polySurface44_aiStandardSurface11_0",
      "primitives": [
        {
          "attributes": {
            "NORMAL": 17,
            "POSITION": 16,
            "TEXCOORD_0": 18
          },
          "indices": 19,
          "material": 4,
          "mode": 4
        }
      ]
    },
    {
      "name": "polySurface44_aiStandardSurface12_0",
      "primitives": [
        {
          "attributes": {
            "NORMAL": 21,
            "POSITION": 20,
            "TEXCOORD_0": 22
          },
          "indices": 23,
          "material": 5,
          "mode": 4
        }
      ]
    },
    {
      "name": "pCube15_aiStandardSurface10_0",
      "primitives": [
        {
          "attributes": {
            "NORMAL": 25,
            "POSITION": 24,
            "TEXCOORD_0": 26
          },
          "indices": 27,
          "material": 6,
          "mode": 4
        }
      ]
    }
  ],
  "nodes": [
    {
      "children": [
        1
      ],
      "matrix": [
        1.0,
        0.0,
        0.0,
        0.0,
        0.0,
        2.220446049250313e-16,
        -1.0,
        0.0,
        0.0,
        1.0,
        2.220446049250313e-16,
        0.0,
        0.0,
        0.0,
        0.0,
        1.0
      ],
      "name": "Sketchfab_model"
    },
    {
      "children": [
        2
      ],
      "matrix": [
        0.009999999776482582,
        0.0,
        0.0,
        0.0,
        0.0,
        0.0,
        0.009999999776482582,
        0.0,
        0.0,
        -0.009999999776482582,
        0.0,
        0.0,
        0.0,
        0.0,
        0.0,
        1.0
      ],
      "name": "8b7c69293eed4d0b93bb02e24dbe6297.fbx"
    },
    {
      "children": [
        3,
        10
      ],
      "name": "RootNode"
    },
    {
      "children": [
        4,
        5,
        6,
        7,
        8,
        9
      ],
      "matrix": [
        1.0,
        0.0,
        0.0,
        0.0,
        0.0,
        1.0,
        0.0,
        0.0,
        0.0,
        0.0,
        1.0,
        0.0,
        0.0,
        0.4266640841960907,
        0.0,
        1.0
      ],
      "name": "polySurface44"
    },
    {
      "mesh": 0,
      "name": "polySurface44_lambert1_0"
    },
    {
      "mesh": 1,
      "name": "polySurface44_aiStandardSurface4_0"
    },
    {
      "mesh": 2,
      "name": "polySurface44_aiStandardSurface8_0"
    },
    {
      "mesh": 3,
      "name": "polySurface44_aiStandardSurface3_0"
    },
    {
      "mesh": 4,
      "name": "polySurface44_aiStandardSurface11_0"
    },
    {
      "mesh": 5,
      "name": "polySurface44_aiStandardSurface12_0"
    },
    {
      "children": [
        11
      ],
      "name": "pCube15"
    },
    {
      "mesh": 6,
      "name": "pCube15_aiStandardSurface10_0"
    }
  ],
  "scene": 0,
  "scenes": [
    {
      "name": "Sketchfab_Scene",
      "nodes": [
        0
      ]
    }
  ]
}
